<svg xmlns="http://www.w3.org/2000/svg" viewBox="0 0 512 512" width="512" height="512">
  <!-- Background -->
  <circle cx="256" cy="256" r="240" fill="#1e1e32"/>
  <circle cx="256" cy="256" r="236" fill="none" stroke="#2a2a40" stroke-width="2"/>

  <!-- Rings -->
  <circle cx="256" cy="256" r="210" fill="none" stroke="#e86a2e" stroke-width="2" opacity="0.3"/>
  <circle cx="256" cy="256" r="190" fill="none" stroke="#e86a2e" stroke-width="1" opacity="0.15"/>

  <!-- Sound waves -->
  <path d="M140 320 Q170 260 200 320 Q230 380 260 320 Q290 260 320 320 Q350 380 380 320" stroke="#e86a2e" stroke-width="6" fill="none" stroke-linecap="round" opacity="0.12"/>

  <!-- Music note head -->
  <ellipse cx="220" cy="300" rx="38" ry="28" fill="#e86a2e" transform="rotate(-25 220 300)"/>

  <!-- Stem -->
  <rect x="254" y="160" width="10" height="145" rx="5" fill="#e86a2e"/>

  <!-- Flag -->
  <path d="M264 160 Q320 185 310 230 Q300 200 264 195 Z" fill="#e86a2e"/>

  <!-- Play triangle -->
  <polygon points="238,240 238,310 290,275" fill="white"/>
</svg>
